<svg fill="none" height="33" viewBox="0 0 297 33" width="297" xmlns="http://www.w3.org/2000/svg"><path d="m17.2689 1.61203c-1.2237-.45782-2.4877-.686737-3.7918-.686737-2.3374 0-4.51919.672377-6.5454 2.017137-2.02473 1.34325-3.68619 3.35284-4.98439 6.02876-1.298208 2.67591-1.94731 5.53771-1.94731 8.58531 0 2.8693.628259 5.5075 1.88478 7.9144 1.25801 2.4055 2.93659 4.2496 5.03575 5.5324 2.10065 1.2829 4.40827 1.9235 6.92277 1.922 3.0996 0 5.6685-.9799 7.7066-2.9396 2.0396-1.9612 3.2693-4.7648 3.6892-8.4108h-1.4449c-.5017 3.2138-1.5811 5.6178-3.2381 7.2119-1.6584 1.594-3.71 2.3911-6.1545 2.3911-2.7989 0-4.9725-1.0215-6.52082-3.0643-1.82076-2.41-2.73114-5.9109-2.73114-10.5027 0-5.4606.795-9.334 2.38501-11.62009 1.58851-2.28912 3.64595-3.43367 6.17245-3.43367 2.3358 0 4.3457 1.02972 6.0295 3.08917 1.3592 1.64544 2.487 4.20275 3.3832 7.67189h1.3734l-.536-12.322646h-1.2818l-1.4113 2.959986c-1.4397-1.10301-2.7714-1.88418-3.9952-2.34351zm11.0497 12.62867h1.6748c.734 0 1.299.2168 1.695.6505.3945.4366.5918 1.1234.5918 2.0602v12.3544c0 .3596-.163.6663-.4891.9201-.3275.2569-.8121.3846-1.4538.3831h-1.9026v1.5593h11.8871v-1.5593h-2.4275c-.7905 0-1.3488-.1239-1.6748-.3717-.3261-.2493-.4891-.6082-.4891-1.0766v-4.1589c0-1.5034.4087-3.51 1.226-6.0197.53-1.6137 1.2855-2.8837 2.2666-3.8099.7072-.6618 1.3399-.992 1.8982-.9904.2591 0 .3886.1035.3886.3105 0 .0695-.1012.2833-.3037.6414-.2174.4004-.3261.828-.3261 1.2828 0 .7041.1869 1.2624.5606 1.6749.3736.414.8664.621 1.4783.621.6253-.0015 1.1449-.2433 1.5587-.7253.4139-.4835.6209-1.1596.6209-2.0284 0-1.0774-.3097-1.9364-.929-2.577-.6194-.6407-1.4464-.961-2.4811-.961-1.5259 0-2.8055.6618-3.8387 1.9854-1.0362 1.3236-1.9213 3.2758-2.6553 5.8565v-7.8419l-6.8758.3536zm37.3762 16.4408c-.4764 0-.865-.2281-1.1657-.6845-.2992-.4412-.4496-1.1294-.4511-2.0647v-10.5798c0-1.4354-.5985-2.6547-1.7955-3.658-1.1954-.9912-2.9298-1.4868-5.2032-1.4868-2.4609 0-4.4499.5658-5.967 1.6975-1.517 1.1318-2.2755 2.3798-2.2755 3.7442 0 .7313.2277 1.3319.6833 1.8019.4541.4683 1.0205.7025 1.6994.7025.6387 0 1.1546-.1964 1.5476-.5892.3945-.3929.5918-.8991.5918-1.5185 0-.4277-.1958-.9164-.5873-1.4664-.3231-.4412-.4846-.7653-.4846-.9723 0-.3597.3059-.7253.9178-1.097.8575-.4941 1.8781-.7411 3.0616-.7411 1.2804 0 2.3352.3709 3.1644 1.1128.8307.7464 1.2461 1.6432 1.2461 2.6903v2.9373c-3.8782.4412-6.9845 1.3259-9.3189 2.654-2.3329 1.3296-3.4994 2.9993-3.4994 5.0088 0 1.3373.5099 2.4319 1.5297 3.2841 1.0198.8537 2.5101 1.2798 4.4708 1.2783 1.3727 0 2.5495-.2289 3.5306-.6867.9811-.4624 2.1178-1.381 3.41-2.756.4764 1.2798 1.031 2.1735 1.6637 2.6812.6328.5092 1.4121.763 2.3381.7615 1.2119 0 2.3151-.5183 3.3096-1.5548l-.737-1.1627c-.5865.4427-1.1463.6641-1.6793.6641zm-5.0179-6.0333c0 1.857-.5895 3.402-1.7686 4.6349-1.1791 1.2299-2.5726 1.8449-4.1805 1.8449-.8992 0-1.628-.2984-2.1863-.8953-.5582-.5998-.8374-1.4293-.8374-2.4885 0-1.514.5382-2.6842 1.6146-3.5107 1.4441-1.0849 3.8968-1.8691 7.3582-2.3526zm8.8924-10.4551c.8293.0136 1.4374.1405 1.8245.3808.3871.2402.7168.6595.9893 1.2578l7.5436 16.9032h1.0719l7.0143-16.4453c.2576-.6029.6253-1.0819 1.1032-1.437.4764-.3566 1.1158-.5764 1.9182-.6595v-1.4188h-7.9232v1.4188c1.9607.2493 2.9403.8748 2.9389 1.8766 0 .1919-.0335.3845-.1005.578l-4.6204 11.0761-5.1005-11.4252c-.1191-.3022-.1787-.6044-.1787-.9066 0-.3717.1727-.6572.5181-.8567.3469-.2009 1.1449-.315 2.3939-.3422v-1.4188h-9.3926zm40.4397 3.6195c-.681-1.8041-1.695-3.1904-3.041-4.1589-1.346-.964-2.944-1.446-4.795-1.446-2.5157 0-4.6342.9685-6.3553 2.9056-1.7195 1.937-2.5792 4.4762-2.5792 7.6175 0 2.9222.8731 5.3209 2.6195 7.196 1.7493 1.8736 3.902 2.8096 6.458 2.8081 3.753 0 6.624-1.9582 8.611-5.8746l-1.324-.5802c-1.617 3.0748-3.758 4.6122-6.423 4.6122-1.808 0-3.2972-.6807-4.4658-2.0421-1.0198-1.2148-1.564-3.2931-1.6325-6.235h13.6823c-.028-1.931-.28-3.5319-.755-4.8026zm-11.3864-2.4296c.987-1.2813 2.1874-1.922 3.6024-1.922 1.264 0 2.362.5304 3.296 1.5911.932 1.0592 1.398 2.3473 1.398 3.8643 0 .8129-.136 1.3878-.409 1.7247-.272.3385-.653.5077-1.143.5077h-8.2853c.0432-2.5626.5568-4.4845 1.5409-5.7658zm15.1004-1.2602h.978c.827 0 1.461.2138 1.903.6414.441.4291.661 1.057.661 1.8835v12.513c0 .414-.173.7593-.518 1.0358-.346.2735-.85.411-1.514.4125h-1.324v1.5593h10.091v-1.5593h-1.322c-.732 0-1.259-.1481-1.579-.4442-.318-.2977-.478-.7978-.478-1.5004v-7.1847c0-2.0141.514-3.649 1.541-4.9046s2.309-1.8834 3.846-1.8834c1.551 0 2.708.621 3.47 1.863.543.8673.815 2.206.815 4.0162v8.2997c0 .5802-.176 1.0146-.529 1.3032-.351.2886-.975.4337-1.872.4352h-.955v1.5593h10.069v-1.5593h-1.344c-.733 0-1.255-.1481-1.568-.4442-.313-.2977-.468-.7978-.467-1.5004v-9.4375c0-1.3523-.259-2.5724-.777-3.6603-.517-1.091-1.204-1.888-2.061-2.3911-.858-.5032-1.919-.7548-3.185-.7548-1.47 0-2.787.3506-3.95 1.0517-1.164.7041-2.175 1.7587-3.033 3.1639-.119-1.6273-.305-3.0484-.558-4.2632l-6.34.4012zm37.162-10.99905h3.082c.531 0 .947.12767 1.246.38303.299.25535.449.59683.449 1.02444v24.63178c0 .4956-.139.8605-.418 1.0947-.278.2342-.779.3513-1.501.3513h-2.858v1.5593h13.95c2.378 0 4.281-.2334 5.708-.7003 1.903-.6346 3.517-1.5866 4.842-2.8558s2.308-2.7529 2.95-4.4513c.841-2.206 1.262-4.6893 1.262-7.4498 0-3.3392-.703-6.2297-2.108-8.67142-1.41-2.44021-3.121-4.18613-5.132-5.23777-1.617-.8265-3.582-1.23974-5.894-1.23974h-15.578zm14.352 0c3.018 0 5.274.9995 6.769 2.99851 1.751 2.37222 2.626 6.10884 2.626 11.20984.002 3.445-.399 6.1474-1.201 8.1071-.585 1.4475-1.441 2.5709-2.568 3.3702-1.727 1.1997-3.738 1.7996-6.032 1.7996h-2.57c-.815 0-1.392-.1277-1.731-.3831-.339-.2538-.509-.6293-.509-1.1264v-24.40283c0-.52431.146-.91716.44-1.17856.292-.26291.743-.39436 1.353-.39436zm17.852 9.65055v1.4437c1.261.0272 2.096.1791 2.506.4556.583.3853.875.9511.875 1.6975v8.4244c0 2.7742.591 4.7407 1.771 5.8996 1.167 1.171 2.613 1.7565 4.337 1.7565 1.179 0 2.346-.3437 3.501-1.0312 1.153-.6875 2.3-1.7135 3.442-3.0779l.42 3.8054 6.409-.1428v-1.3961h-1.202c-.732 0-1.302-.1964-1.708-.5893-.406-.3928-.61-.9549-.61-1.6862v-15.9128l-6.713.3536v1.4437c1.331.0408 2.231.244 2.7.6097.469.3672.704.8816.704 1.5434v7.2708c0 1.8766-.533 3.4405-1.599 4.6916-1.066 1.2495-2.359 1.8743-3.879 1.8743-1.236 0-2.244-.4283-3.024-1.2851-.78-.8537-1.17-2.0692-1.17-3.6467v-12.8553zm25.744 1.3485h.978c.828 0 1.462.2138 1.903.6414.442.4291.664 1.057.665 1.8835v12.513c0 .414-.174.7593-.522 1.0358-.347.2735-.852.411-1.514.4125h-1.322v1.5593h10.091v-1.5593h-1.324c-.733 0-1.258-.1481-1.577-.4442-.318-.2977-.477-.7978-.475-1.5004v-7.1847c0-2.0141.512-3.649 1.536-4.9046 1.027-1.2556 2.31-1.8834 3.848-1.8834 1.551 0 2.707.621 3.468 1.863.546.8673.819 2.206.819 4.0162v8.2997c0 .5802-.177 1.0146-.531 1.3032-.353.2886-.977.4337-1.871.4352h-.956v1.5593h10.067v-1.5593h-1.342c-.734 0-1.257-.1481-1.568-.4442-.313-.2977-.469-.7978-.469-1.5004v-9.4375c0-1.3523-.258-2.5724-.775-3.6603-.518-1.091-1.206-1.888-2.063-2.3911-.856-.5032-1.917-.7548-3.183-.7548-1.47 0-2.788.3506-3.952 1.0517-1.164.7041-2.174 1.7587-3.028 3.1639-.124-1.6273-.311-3.0484-.561-4.2632l-6.342.4012zm25.514 0h.976c.827 0 1.462.2138 1.905.6414.44.4291.661 1.057.661 1.8835v12.513c0 .414-.174.7593-.521 1.0358-.345.2735-.85.411-1.514.4125h-1.32v1.5593h10.09v-1.5593h-1.325c-.732 0-1.258-.1481-1.578-.4442-.319-.2977-.478-.7978-.478-1.5004v-7.1847c0-2.0141.513-3.649 1.541-4.9046 1.027-1.2556 2.309-1.8834 3.847-1.8834 1.55 0 2.706.621 3.468 1.863.544.8673.815 2.206.815 4.0162v8.2997c0 .5802-.175 1.0146-.527 1.3032s-.976.4337-1.871.4352h-.953v1.5593h10.064v-1.5593h-1.344c-.733 0-1.254-.1481-1.563-.4442-.313-.2977-.469-.7978-.469-1.5004v-9.4375c0-1.3523-.26-2.5724-.78-3.6603-.515-1.091-1.202-1.888-2.061-2.3911-.857-.5032-1.919-.7548-3.184-.7548-1.47 0-2.786.3506-3.951 1.0517-1.164.7041-2.175 1.7587-3.032 3.1639-.119-1.6273-.305-3.0484-.559-4.2632l-6.337.4012zm28.839-12.23427c-.463.4684-.696 1.01386-.697 1.63638 0 .6195.228 1.16118.683 1.62505.456.46386.997.69504 1.624.69353.627 0 1.164-.22816 1.612-.68447.448-.45329.672-.99119.672-1.61371 0-.63461-.231-1.18686-.692-1.65678-.462-.46839-.999-.70335-1.612-.70486-.599 0-1.129.23495-1.59.70486zm-3.723 12.44737h1.572c.859 0 1.507.1964 1.943.5893.436.3943.654.9768.654 1.7474v12.2003c0 .5651-.139.9957-.417 1.2919-.28.2961-.719.4442-1.316.4442h-2.021v1.5593h10.885v-1.5593h-2.169c-.476-.0015-.871-.139-1.185-.4125-.218-.1964-.327-.5213-.329-.9746v-16.6833l-7.617.2357zm13.196-12.77373v1.56158h1.717c.734 0 1.353.2206 1.858.6618.366.31731.55.82046.552 1.50946v23.57789c0 .5515-.154.9791-.461 1.2828-.306.3022-.772.4533-1.397.4533h-1.919v1.5593h10.84v-1.5593h-2.023c-.489-.0015-.902-.139-1.242-.4125-.234-.207-.351-.5039-.351-.8907v-28.0972zm13.153 0v1.56158h1.717c.734 0 1.353.2206 1.858.6618.366.31731.55.82046.552 1.50946v23.57789c0 .5515-.154.9791-.46 1.2828-.307.3022-.773.4533-1.398.4533h-1.916v1.5593h10.835v-1.5593h-2.021c-.488-.0015-.903-.139-1.244-.4125-.232-.207-.348-.5039-.348-.8907v-28.0972z" fill="#122c58"/></svg>